<svg width="20" height="12" viewBox="0 0 20 12" fill="none" xmlns="http://www.w3.org/2000/svg">
<g id="icn_connect">
<path id="Vector" d="M12.6242 0.0864205C12.5501 0.0836514 12.4764 0.104613 12.4074 0.148071C12.3384 0.19153 12.2756 0.256611 12.2226 0.339485C12.1696 0.422359 12.1274 0.521353 12.0987 0.630653C12.0699 0.739954 12.0551 0.857356 12.0551 0.975951C12.0551 1.09455 12.0699 1.21194 12.0987 1.32124C12.1274 1.43054 12.1696 1.52954 12.2226 1.61241C12.2756 1.69529 12.3384 1.76037 12.4074 1.80382C12.4764 1.84728 12.5501 1.86824 12.6242 1.86548H16.3362C17.0219 1.86548 17.6794 2.30127 18.1643 3.077C18.6491 3.85273 18.9215 4.90484 18.9215 6.00188C18.9215 7.09893 18.6491 8.15103 18.1643 8.92676C17.6794 9.70249 17.0219 10.1383 16.3362 10.1383H11.4816C10.7962 10.1366 10.1392 9.70023 9.65453 8.92478C9.16987 8.14932 8.89713 7.09806 8.89609 6.0014C8.89269 5.76908 8.83264 5.5481 8.72874 5.38571C8.62485 5.22332 8.48537 5.13241 8.34013 5.13241C8.19489 5.13241 8.05541 5.22332 7.95152 5.38571C7.84763 5.5481 7.78757 5.76908 7.78418 6.0014C7.78546 7.56964 8.1754 9.07307 8.86847 10.182C9.56155 11.2909 10.5012 11.9148 11.4813 11.9169H16.3362C17.311 11.9027 18.2429 11.2732 18.929 10.1654C19.6152 9.0575 20.0002 7.56088 20.0002 6.00115C20.0002 4.44143 19.6152 2.94481 18.929 1.83693C18.2429 0.729055 17.311 0.0995736 16.3362 0.0854492L12.6242 0.0864205Z" fill="black"/>
<path id="Vector_2" d="M2.01585 1.82325C1.50034 2.65057 1.14949 3.70361 1.00754 4.84956C0.8656 5.99551 0.938922 7.18306 1.21827 8.26242C1.49761 9.34178 1.97046 10.2646 2.57719 10.9146C3.18392 11.5645 3.89734 11.9124 4.62749 11.9144H7.76764C7.91505 11.9144 8.05642 11.8207 8.16065 11.654C8.26488 11.4872 8.32345 11.261 8.32345 11.0251C8.32345 10.7893 8.26488 10.5631 8.16065 10.3963C8.05642 10.2295 7.91505 10.1358 7.76764 10.1358H4.62627C3.94062 10.1358 3.28305 9.70005 2.79822 8.92432C2.31339 8.1486 2.04102 7.09648 2.04102 5.99944C2.04102 4.9024 2.31339 3.85028 2.79822 3.07456C3.28305 2.29883 3.94062 1.86303 4.62627 1.86303H9.19551C9.88037 1.86687 10.5365 2.30383 11.0208 3.07862C11.5051 3.85342 11.7783 4.90318 11.7808 5.99895C11.779 6.11752 11.7921 6.23544 11.8193 6.34578C11.8465 6.45613 11.8871 6.55667 11.9389 6.6415C11.9907 6.72634 12.0526 6.79375 12.1209 6.83977C12.1892 6.88579 12.2626 6.9095 12.3367 6.9095C12.4108 6.9095 12.4842 6.88579 12.5525 6.83977C12.6208 6.79375 12.6827 6.72634 12.7345 6.6415C12.7863 6.55667 12.827 6.45613 12.8541 6.34578C12.8813 6.23544 12.8944 6.11752 12.8927 5.99895C12.8912 4.43079 12.5012 2.92751 11.8082 1.81864C11.1152 0.70978 10.1756 0.0858066 9.19551 0.0834967H4.62597C4.14064 0.0831356 3.66008 0.2367 3.21206 0.535318C2.76405 0.833937 2.35748 1.27169 2.01585 1.82325Z" fill="black"/>
</g>
</svg>
